<svg width="162" height="43" viewBox="0 0 162 43" fill="none" xmlns="http://www.w3.org/2000/svg">
<rect width="6.77882" height="31.7534" rx="3.38941" transform="matrix(-0.855771 0.517356 0.517356 0.855771 15.6699 0)" fill="#E8092E"/>
<rect width="6.77882" height="31.7534" rx="3.38941" transform="matrix(-0.855771 0.517356 0.517356 0.855771 9.59131 12.0137)" fill="#172B43"/>
<path d="M161.195 28.9443V34.5997H158.317C153.463 34.5997 151.036 32.1953 151.036 27.3865V21.1216H148.699V15.6017H151.036V10.9961H157.707V15.6017H161.161V21.1216H157.707V27.4881C157.707 28.0074 157.82 28.3799 158.046 28.6057C158.294 28.8314 158.701 28.9443 159.265 28.9443H161.195Z" fill="#172B43"/>
<path d="M142.921 13.8406C141.747 13.8406 140.799 13.5246 140.077 12.8924C139.377 12.2377 139.027 11.425 139.027 10.4542C139.027 9.46082 139.377 8.63679 140.077 7.98207C140.799 7.32736 141.747 7 142.921 7C144.073 7 144.998 7.32736 145.698 7.98207C146.421 8.63679 146.782 9.46082 146.782 10.4542C146.782 11.425 146.421 12.2377 145.698 12.8924C144.998 13.5246 144.073 13.8406 142.921 13.8406ZM146.206 15.6016V34.5996H139.569V15.6016H146.206Z" fill="#172B43"/>
<path d="M128.415 34.8373C126.699 34.8373 125.164 34.5551 123.809 33.9907C122.477 33.4037 121.416 32.6136 120.626 31.6202C119.859 30.6043 119.43 29.4642 119.339 28.1999H125.774C125.864 28.8095 126.146 29.2836 126.62 29.6222C127.094 29.9609 127.681 30.1302 128.381 30.1302C128.923 30.1302 129.352 30.0173 129.668 29.7915C129.984 29.5658 130.142 29.2723 130.142 28.911C130.142 28.4369 129.883 28.087 129.363 27.8612C128.844 27.6355 127.986 27.3871 126.79 27.1162C125.435 26.8453 124.306 26.5405 123.403 26.2019C122.5 25.8632 121.71 25.3101 121.033 24.5425C120.378 23.7749 120.051 22.7364 120.051 21.427C120.051 20.2982 120.355 19.2822 120.965 18.3792C121.574 17.4535 122.466 16.7198 123.64 16.178C124.837 15.6362 126.27 15.3652 127.941 15.3652C130.424 15.3652 132.377 15.9748 133.8 17.1939C135.222 18.413 136.046 20.016 136.272 22.0027H130.278C130.165 21.3931 129.894 20.9303 129.465 20.6142C129.058 20.2756 128.505 20.1063 127.805 20.1063C127.264 20.1063 126.846 20.2079 126.553 20.4111C126.282 20.6142 126.146 20.8964 126.146 21.2577C126.146 21.7092 126.406 22.0591 126.925 22.3075C127.444 22.5332 128.28 22.7703 129.431 23.0186C130.808 23.3121 131.948 23.6395 132.851 24.0007C133.777 24.3619 134.578 24.9489 135.256 25.7616C135.956 26.5518 136.305 27.6355 136.305 29.0126C136.305 30.1189 135.978 31.1122 135.323 31.9927C134.691 32.8732 133.777 33.5731 132.58 34.0923C131.406 34.589 130.018 34.8373 128.415 34.8373Z" fill="#172B43"/>
<path d="M109.534 15.4326C111.724 15.4326 113.463 16.1663 114.749 17.6338C116.036 19.0787 116.68 21.0428 116.68 23.5262V34.5999H110.042V24.4067C110.042 23.3231 109.76 22.4764 109.196 21.8669C108.631 21.2347 107.875 20.9187 106.927 20.9187C105.933 20.9187 105.154 21.2347 104.59 21.8669C104.026 22.4764 103.743 23.3231 103.743 24.4067V34.5999H97.106V15.6019H103.743V18.3111C104.33 17.4532 105.121 16.7646 106.114 16.2454C107.107 15.7035 108.247 15.4326 109.534 15.4326Z" fill="#172B43"/>
<path d="M73.0049 25.0844C73.0049 23.1202 73.3548 21.4044 74.0547 19.9369C74.7771 18.4695 75.7479 17.3407 76.967 16.5505C78.2087 15.7603 79.5859 15.3652 81.0985 15.3652C82.4079 15.3652 83.5368 15.6249 84.485 16.1441C85.4332 16.6634 86.1669 17.3632 86.6862 18.2437V15.6023H93.3236V34.6003H86.6862V31.9589C86.1669 32.8393 85.4219 33.5392 84.4511 34.0585C83.5029 34.5777 82.3854 34.8373 81.0985 34.8373C79.5859 34.8373 78.2087 34.4423 76.967 33.6521C75.7479 32.8619 74.7771 31.7331 74.0547 30.2656C73.3548 28.7756 73.0049 27.0485 73.0049 25.0844ZM86.6862 25.0844C86.6862 23.8652 86.3475 22.9057 85.6702 22.2059C85.0155 21.506 84.2028 21.1561 83.232 21.1561C82.2386 21.1561 81.4146 21.506 80.7599 22.2059C80.1052 22.8832 79.7778 23.8427 79.7778 25.0844C79.7778 26.3035 80.1052 27.2743 80.7599 27.9967C81.4146 28.6966 82.2386 29.0465 83.232 29.0465C84.2028 29.0465 85.0155 28.6966 85.6702 27.9967C86.3475 27.2968 86.6862 26.3261 86.6862 25.0844Z" fill="#172B43"/>
<path d="M65.5793 18.9545C66.3244 17.8709 67.2274 17.013 68.2885 16.3808C69.3496 15.7487 70.4897 15.4326 71.7088 15.4326V22.5103H69.8463C68.4014 22.5103 67.329 22.7925 66.6291 23.3569C65.9293 23.9213 65.5793 24.9034 65.5793 26.3031V34.5999H58.9419V15.6019H65.5793V18.9545Z" fill="#172B43"/>
<path d="M56.4864 10.7256V16.0085H50.1198V34.6001H43.4824V16.0085H37.1836V10.7256H56.4864Z" fill="#172B43"/>
</svg>
