<svg width="162" height="43" viewBox="0 0 162 43" fill="none" xmlns="http://www.w3.org/2000/svg">
<rect width="6.77882" height="31.7534" rx="3.38941" transform="matrix(-0.855771 0.517356 0.517356 0.855771 15.5718 0)" fill="#E8092E"/>
<rect width="6.77882" height="31.7534" rx="3.38941" transform="matrix(-0.855771 0.517356 0.517356 0.855771 9.49316 12.0137)" fill="#F5F5F5"/>
<path d="M161.097 28.9443V34.5997H158.219C153.365 34.5997 150.938 32.1953 150.938 27.3865V21.1216H148.601V15.6017H150.938V10.9961H157.609V15.6017H161.063V21.1216H157.609V27.4881C157.609 28.0074 157.722 28.3799 157.948 28.6057C158.196 28.8314 158.602 28.9443 159.167 28.9443H161.097Z" fill="#F5F5F5"/>
<path d="M142.823 13.8406C141.649 13.8406 140.701 13.5246 139.979 12.8924C139.279 12.2377 138.929 11.425 138.929 10.4542C138.929 9.46082 139.279 8.63679 139.979 7.98207C140.701 7.32736 141.649 7 142.823 7C143.975 7 144.9 7.32736 145.6 7.98207C146.322 8.63679 146.684 9.46082 146.684 10.4542C146.684 11.425 146.322 12.2377 145.6 12.8924C144.9 13.5246 143.975 13.8406 142.823 13.8406ZM146.108 15.6016V34.5996H139.471V15.6016H146.108Z" fill="#F5F5F5"/>
<path d="M128.317 34.8373C126.601 34.8373 125.066 34.5551 123.711 33.9907C122.379 33.4037 121.318 32.6136 120.528 31.6202C119.76 30.6043 119.332 29.4642 119.241 28.1999H125.675C125.766 28.8095 126.048 29.2836 126.522 29.6222C126.996 29.9609 127.583 30.1302 128.283 30.1302C128.825 30.1302 129.254 30.0173 129.57 29.7915C129.886 29.5658 130.044 29.2723 130.044 28.911C130.044 28.4369 129.784 28.087 129.265 27.8612C128.746 27.6355 127.888 27.3871 126.691 27.1162C125.337 26.8453 124.208 26.5405 123.305 26.2019C122.402 25.8632 121.612 25.3101 120.934 24.5425C120.28 23.7749 119.952 22.7364 119.952 21.427C119.952 20.2982 120.257 19.2822 120.867 18.3792C121.476 17.4535 122.368 16.7198 123.542 16.178C124.739 15.6362 126.172 15.3652 127.843 15.3652C130.326 15.3652 132.279 15.9748 133.701 17.1939C135.124 18.413 135.948 20.016 136.173 22.0027H130.179C130.067 21.3931 129.796 20.9303 129.367 20.6142C128.96 20.2756 128.407 20.1063 127.707 20.1063C127.166 20.1063 126.748 20.2079 126.454 20.4111C126.183 20.6142 126.048 20.8964 126.048 21.2577C126.048 21.7092 126.308 22.0591 126.827 22.3075C127.346 22.5332 128.181 22.7703 129.333 23.0186C130.71 23.3121 131.85 23.6395 132.753 24.0007C133.679 24.3619 134.48 24.9489 135.158 25.7616C135.857 26.5518 136.207 27.6355 136.207 29.0126C136.207 30.1189 135.88 31.1122 135.225 31.9927C134.593 32.8732 133.679 33.5731 132.482 34.0923C131.308 34.589 129.92 34.8373 128.317 34.8373Z" fill="#F5F5F5"/>
<path d="M109.436 15.4326C111.626 15.4326 113.364 16.1663 114.651 17.6338C115.938 19.0787 116.582 21.0428 116.582 23.5262V34.5999H109.944V24.4067C109.944 23.3231 109.662 22.4764 109.097 21.8669C108.533 21.2347 107.777 20.9187 106.829 20.9187C105.835 20.9187 105.056 21.2347 104.492 21.8669C103.927 22.4764 103.645 23.3231 103.645 24.4067V34.5999H97.0078V15.6019H103.645V18.3111C104.232 17.4532 105.022 16.7646 106.016 16.2454C107.009 15.7035 108.149 15.4326 109.436 15.4326Z" fill="#F5F5F5"/>
<path d="M72.9067 25.0844C72.9067 23.1202 73.2567 21.4044 73.9565 19.9369C74.679 18.4695 75.6498 17.3407 76.8689 16.5505C78.1106 15.7603 79.4877 15.3652 81.0004 15.3652C82.3098 15.3652 83.4386 15.6249 84.3868 16.1441C85.335 16.6634 86.0688 17.3632 86.588 18.2437V15.6023H93.2255V34.6003H86.588V31.9589C86.0688 32.8393 85.3237 33.5392 84.353 34.0585C83.4047 34.5777 82.2872 34.8373 81.0004 34.8373C79.4877 34.8373 78.1106 34.4423 76.8689 33.6521C75.6498 32.8619 74.679 31.7331 73.9565 30.2656C73.2567 28.7756 72.9067 27.0485 72.9067 25.0844ZM86.588 25.0844C86.588 23.8652 86.2494 22.9057 85.5721 22.2059C84.9174 21.506 84.1046 21.1561 83.1338 21.1561C82.1405 21.1561 81.3164 21.506 80.6617 22.2059C80.007 22.8832 79.6796 23.8427 79.6796 25.0844C79.6796 26.3035 80.007 27.2743 80.6617 27.9967C81.3164 28.6966 82.1405 29.0465 83.1338 29.0465C84.1046 29.0465 84.9174 28.6966 85.5721 27.9967C86.2494 27.2968 86.588 26.3261 86.588 25.0844Z" fill="#F5F5F5"/>
<path d="M65.4812 18.9545C66.2262 17.8709 67.1293 17.013 68.1904 16.3808C69.2515 15.7487 70.3916 15.4326 71.6107 15.4326V22.5103H69.7481C68.3032 22.5103 67.2309 22.7925 66.531 23.3569C65.8311 23.9213 65.4812 24.9034 65.4812 26.3031V34.5999H58.8438V15.6019H65.4812V18.9545Z" fill="#F5F5F5"/>
<path d="M56.3882 10.7256V16.0085H50.0217V34.6001H43.3843V16.0085H37.0854V10.7256H56.3882Z" fill="#F5F5F5"/>
</svg>
