<svg width="174" height="66" viewBox="0 0 174 66" fill="none" xmlns="http://www.w3.org/2000/svg">
<path d="M69.4395 15.5352V11.4922H82.125V15.5352H77.8477V32H73.7168V15.5352H69.4395ZM85.8949 32V15.3008H89.8793V17.1465C90.5629 16.2676 91.4906 15.6621 92.6625 15.3301C93.0727 15.2129 93.4828 15.1543 93.893 15.1543H94.9477L94.0395 19.0801C92.809 19.0996 91.7445 19.6367 90.8461 20.6914C90.2016 21.4531 89.8793 22.2441 89.8793 23.0645V32H85.8949ZM98.073 28.1328V26.6387C98.0926 25.3887 98.6199 24.4219 99.6551 23.7383C99.909 23.6016 100.934 23.2207 102.731 22.5957C104.821 21.8926 105.866 21.2676 105.866 20.7207V20.0469C105.846 19.3438 105.417 18.9629 104.577 18.9043V15.3008C106.042 15.3008 107.272 15.7988 108.268 16.7949C109.167 17.7129 109.616 18.709 109.616 19.7832V27.4297C109.636 28.0156 109.909 28.3281 110.436 28.3672V32C109.245 32 108.288 31.6875 107.565 31.0625C106.804 31.668 105.817 31.9805 104.606 32V28.3965C104.763 28.3965 104.909 28.377 105.046 28.3379C105.593 28.1816 105.866 27.8105 105.866 27.2246V24.8223C105.339 25.1348 104.313 25.5059 102.79 25.9355C102.165 26.0918 101.804 26.1992 101.706 26.2578C101.471 26.375 101.345 26.5996 101.325 26.9316V27.3418C101.325 27.459 101.335 27.5762 101.354 27.6934C101.471 28.1621 102.028 28.3965 103.024 28.3965V32C101.716 32 100.602 31.668 99.6844 31.0039C98.6102 30.2227 98.073 29.2656 98.073 28.1328ZM98.2781 19.4902C98.2977 18.4941 98.7078 17.5859 99.5086 16.7656C100.524 15.7891 101.706 15.3008 103.054 15.3008V18.9043C102.155 18.9238 101.696 19.5488 101.677 20.7793L98.2781 19.4902ZM114.382 32V19.8418C114.382 18.8652 114.821 17.9082 115.7 16.9707C116.775 15.8574 118.112 15.291 119.714 15.2715V19.168C118.894 19.2656 118.445 19.6465 118.366 20.3105V32H114.382ZM121.062 19.168V15.2715C122.956 15.2715 124.45 16.0234 125.544 17.5273C126.13 18.3477 126.423 19.1191 126.423 19.8418V32H122.439V20.3105C122.439 19.666 122.077 19.2949 121.355 19.1973C121.257 19.1777 121.159 19.168 121.062 19.168ZM130.222 27.6055L133.855 26.9316C133.855 27.5762 134.187 28.0352 134.851 28.3086C135.086 28.3867 135.3 28.4355 135.496 28.4551V32.1465C133.23 32.1465 131.658 31.3457 130.779 29.7441C130.408 29.0801 130.222 28.3672 130.222 27.6055ZM130.398 19.8711C130.398 18.0547 131.248 16.707 132.947 15.8281C133.787 15.3789 134.617 15.1543 135.437 15.1543V18.7871C134.48 18.8066 134.002 19.168 134.002 19.8711C134.002 20.6133 134.9 21.2676 136.697 21.834C137.361 22.0488 138.142 22.2539 139.041 22.4492C140.388 22.7031 141.345 23.4551 141.912 24.7051C142.205 25.3496 142.351 26.0625 142.351 26.8438C142.351 28.875 141.55 30.3691 139.949 31.3262C139.031 31.873 137.986 32.1465 136.814 32.1465V28.4551C137.498 28.4551 138.005 28.2305 138.338 27.7812C138.494 27.5664 138.572 27.332 138.572 27.0781C138.572 26.4727 137.83 25.9453 136.345 25.4961C136.111 25.4375 135.75 25.3398 135.261 25.2031C134.226 24.9297 133.513 24.7051 133.123 24.5293C131.697 23.8066 130.838 22.7422 130.545 21.3359C130.447 20.8672 130.398 20.3789 130.398 19.8711ZM136.755 18.7871L136.785 15.1543C138.543 15.1543 139.959 15.7988 141.033 17.0879C141.716 17.9277 142.058 18.8164 142.058 19.7539L138.455 20.3691C138.455 19.4902 137.986 18.9727 137.048 18.8164C136.931 18.7969 136.834 18.7871 136.755 18.7871ZM146.502 12.9277C146.502 12.127 146.863 11.5215 147.586 11.1113C147.918 10.916 148.27 10.8184 148.641 10.8184C149.461 10.8184 150.076 11.1797 150.486 11.9023C150.662 12.2344 150.75 12.5762 150.75 12.9277C150.75 13.748 150.389 14.3633 149.666 14.7734C149.334 14.9492 148.992 15.0371 148.641 15.0371C147.801 15.0371 147.176 14.666 146.766 13.9238C146.59 13.6113 146.502 13.2793 146.502 12.9277ZM146.707 32V16.1797H150.633V32H146.707ZM154.725 19.0801V15.3008H156.776V11.0234H160.702V15.3008H162.635V19.1094H160.702V26.873C160.741 27.5762 161.102 27.9375 161.786 27.957H162.635L163.514 32H161.756C159.198 32 157.635 31.0332 157.069 29.0996C156.873 28.3965 156.776 27.5566 156.776 26.5801V19.0801H154.725Z" fill="#172B43"/>
<path d="M81.11 44.575L77.195 55H75.215L71.285 44.575H73.115L76.205 53.245L79.31 44.575H81.11ZM83.41 45.64C83.1 45.64 82.84 45.535 82.63 45.325C82.42 45.115 82.315 44.855 82.315 44.545C82.315 44.235 82.42 43.975 82.63 43.765C82.84 43.555 83.1 43.45 83.41 43.45C83.71 43.45 83.965 43.555 84.175 43.765C84.385 43.975 84.49 44.235 84.49 44.545C84.49 44.855 84.385 45.115 84.175 45.325C83.965 45.535 83.71 45.64 83.41 45.64ZM84.25 46.735V55H82.54V46.735H84.25ZM89.4951 55.135C88.8451 55.135 88.2601 55.02 87.7401 54.79C87.2301 54.55 86.8251 54.23 86.5251 53.83C86.2251 53.42 86.0651 52.965 86.0451 52.465H87.8151C87.8451 52.815 88.0101 53.11 88.3101 53.35C88.6201 53.58 89.0051 53.695 89.4651 53.695C89.9451 53.695 90.3151 53.605 90.5751 53.425C90.8451 53.235 90.9801 52.995 90.9801 52.705C90.9801 52.395 90.8301 52.165 90.5301 52.015C90.2401 51.865 89.7751 51.7 89.1351 51.52C88.5151 51.35 88.0101 51.185 87.6201 51.025C87.2301 50.865 86.8901 50.62 86.6001 50.29C86.3201 49.96 86.1801 49.525 86.1801 48.985C86.1801 48.545 86.3101 48.145 86.5701 47.785C86.8301 47.415 87.2001 47.125 87.6801 46.915C88.1701 46.705 88.7301 46.6 89.3601 46.6C90.3001 46.6 91.0551 46.84 91.6251 47.32C92.2051 47.79 92.5151 48.435 92.5551 49.255H90.8451C90.8151 48.885 90.6651 48.59 90.3951 48.37C90.1251 48.15 89.7601 48.04 89.3001 48.04C88.8501 48.04 88.5051 48.125 88.2651 48.295C88.0251 48.465 87.9051 48.69 87.9051 48.97C87.9051 49.19 87.9851 49.375 88.1451 49.525C88.3051 49.675 88.5001 49.795 88.7301 49.885C88.9601 49.965 89.3001 50.07 89.7501 50.2C90.3501 50.36 90.8401 50.525 91.2201 50.695C91.6101 50.855 91.9451 51.095 92.2251 51.415C92.5051 51.735 92.6501 52.16 92.6601 52.69C92.6601 53.16 92.5301 53.58 92.2701 53.95C92.0101 54.32 91.6401 54.61 91.1601 54.82C90.6901 55.03 90.1351 55.135 89.4951 55.135ZM93.9378 50.83C93.9378 50 94.1078 49.265 94.4478 48.625C94.7978 47.985 95.2678 47.49 95.8578 47.14C96.4578 46.78 97.1178 46.6 97.8378 46.6C98.4878 46.6 99.0528 46.73 99.5328 46.99C100.023 47.24 100.413 47.555 100.703 47.935V46.735H102.428V55H100.703V53.77C100.413 54.16 100.018 54.485 99.5178 54.745C99.0178 55.005 98.4478 55.135 97.8078 55.135C97.0978 55.135 96.4478 54.955 95.8578 54.595C95.2678 54.225 94.7978 53.715 94.4478 53.065C94.1078 52.405 93.9378 51.66 93.9378 50.83ZM100.703 50.86C100.703 50.29 100.583 49.795 100.343 49.375C100.113 48.955 99.8078 48.635 99.4278 48.415C99.0478 48.195 98.6378 48.085 98.1978 48.085C97.7578 48.085 97.3478 48.195 96.9678 48.415C96.5878 48.625 96.2778 48.94 96.0378 49.36C95.8078 49.77 95.6928 50.26 95.6928 50.83C95.6928 51.4 95.8078 51.9 96.0378 52.33C96.2778 52.76 96.5878 53.09 96.9678 53.32C97.3578 53.54 97.7678 53.65 98.1978 53.65C98.6378 53.65 99.0478 53.54 99.4278 53.32C99.8078 53.1 100.113 52.78 100.343 52.36C100.583 51.93 100.703 51.43 100.703 50.86ZM114.855 52.87H110.49L109.74 55H107.955L111.69 44.56H113.67L117.405 55H115.605L114.855 52.87ZM114.375 51.475L112.68 46.63L110.97 51.475H114.375ZM122.359 46.6C122.999 46.6 123.564 46.73 124.054 46.99C124.554 47.24 124.944 47.555 125.224 47.935V46.735H126.949V55.135C126.949 55.895 126.789 56.57 126.469 57.16C126.149 57.76 125.684 58.23 125.074 58.57C124.474 58.91 123.754 59.08 122.914 59.08C121.794 59.08 120.864 58.815 120.124 58.285C119.384 57.765 118.964 57.055 118.864 56.155H120.559C120.689 56.585 120.964 56.93 121.384 57.19C121.814 57.46 122.324 57.595 122.914 57.595C123.604 57.595 124.159 57.385 124.579 56.965C125.009 56.545 125.224 55.935 125.224 55.135V53.755C124.934 54.145 124.539 54.475 124.039 54.745C123.549 55.005 122.989 55.135 122.359 55.135C121.639 55.135 120.979 54.955 120.379 54.595C119.789 54.225 119.319 53.715 118.969 53.065C118.629 52.405 118.459 51.66 118.459 50.83C118.459 50 118.629 49.265 118.969 48.625C119.319 47.985 119.789 47.49 120.379 47.14C120.979 46.78 121.639 46.6 122.359 46.6ZM125.224 50.86C125.224 50.29 125.104 49.795 124.864 49.375C124.634 48.955 124.329 48.635 123.949 48.415C123.569 48.195 123.159 48.085 122.719 48.085C122.279 48.085 121.869 48.195 121.489 48.415C121.109 48.625 120.799 48.94 120.559 49.36C120.329 49.77 120.214 50.26 120.214 50.83C120.214 51.4 120.329 51.9 120.559 52.33C120.799 52.76 121.109 53.09 121.489 53.32C121.879 53.54 122.289 53.65 122.719 53.65C123.159 53.65 123.569 53.54 123.949 53.32C124.329 53.1 124.634 52.78 124.864 52.36C125.104 51.93 125.224 51.43 125.224 50.86ZM136.77 50.665C136.77 50.975 136.75 51.255 136.71 51.505H130.395C130.445 52.165 130.69 52.695 131.13 53.095C131.57 53.495 132.11 53.695 132.75 53.695C133.67 53.695 134.32 53.31 134.7 52.54H136.545C136.295 53.3 135.84 53.925 135.18 54.415C134.53 54.895 133.72 55.135 132.75 55.135C131.96 55.135 131.25 54.96 130.62 54.61C130 54.25 129.51 53.75 129.15 53.11C128.8 52.46 128.625 51.71 128.625 50.86C128.625 50.01 128.795 49.265 129.135 48.625C129.485 47.975 129.97 47.475 130.59 47.125C131.22 46.775 131.94 46.6 132.75 46.6C133.53 46.6 134.225 46.77 134.835 47.11C135.445 47.45 135.92 47.93 136.26 48.55C136.6 49.16 136.77 49.865 136.77 50.665ZM134.985 50.125C134.975 49.495 134.75 48.99 134.31 48.61C133.87 48.23 133.325 48.04 132.675 48.04C132.085 48.04 131.58 48.23 131.16 48.61C130.74 48.98 130.49 49.485 130.41 50.125H134.985ZM142.623 46.6C143.273 46.6 143.853 46.735 144.363 47.005C144.883 47.275 145.288 47.675 145.578 48.205C145.868 48.735 146.013 49.375 146.013 50.125V55H144.318V50.38C144.318 49.64 144.133 49.075 143.763 48.685C143.393 48.285 142.888 48.085 142.248 48.085C141.608 48.085 141.098 48.285 140.718 48.685C140.348 49.075 140.163 49.64 140.163 50.38V55H138.453V46.735H140.163V47.68C140.443 47.34 140.798 47.075 141.228 46.885C141.668 46.695 142.133 46.6 142.623 46.6ZM147.624 50.86C147.624 50.01 147.794 49.265 148.134 48.625C148.484 47.975 148.964 47.475 149.574 47.125C150.184 46.775 150.884 46.6 151.674 46.6C152.674 46.6 153.499 46.84 154.149 47.32C154.809 47.79 155.254 48.465 155.484 49.345H153.639C153.489 48.935 153.249 48.615 152.919 48.385C152.589 48.155 152.174 48.04 151.674 48.04C150.974 48.04 150.414 48.29 149.994 48.79C149.584 49.28 149.379 49.97 149.379 50.86C149.379 51.75 149.584 52.445 149.994 52.945C150.414 53.445 150.974 53.695 151.674 53.695C152.664 53.695 153.319 53.26 153.639 52.39H155.484C155.244 53.23 154.794 53.9 154.134 54.4C153.474 54.89 152.654 55.135 151.674 55.135C150.884 55.135 150.184 54.96 149.574 54.61C148.964 54.25 148.484 53.75 148.134 53.11C147.794 52.46 147.624 51.71 147.624 50.86ZM164.628 46.735L159.558 58.885H157.788L159.468 54.865L156.213 46.735H158.118L160.443 53.035L162.858 46.735H164.628Z" fill="#172B43"/>
<g clip-path="url(#clip0_66_7)">
<path d="M38.525 18.5186V18.6047C36.2875 12.1324 33.2 5.88164 29.675 0C35.0875 3.59297 38.05 12.3047 38.525 18.5186ZM42.6125 33.4934C43.5625 35.7328 43.9875 38.1076 43.9875 40.507C43.9875 50.0678 36.7625 57.8566 26.7625 57.6598L27.2375 57.6229C36.5125 51.8766 40.9 43.0295 40.9 32.3859C40.9 27.6979 40.0875 23.0467 38.5375 18.6047C38.6625 20.0443 38.6625 21.5209 38.6625 22.9605C38.6625 34.2563 36.4 52.6887 24.0875 57.4137C15.875 56.0109 10.175 48.9727 10.175 40.507C10.175 31.2047 17.35 22.9975 27.1 22.9975C29.2 22.9975 31.3125 23.3789 33.2375 24.1787C33.45 22.3207 34.05 20.4996 34.9125 18.8508C32.425 17.9648 29.7625 17.5342 27.1 17.5342C6.91253 17.5342 -2.73747 41.6391 10.8625 56.134C19.35 65.3133 34.8625 65.2272 43.3375 56.134C50.4125 48.5912 50.95 38.6121 47.8875 31.4016C46.3 32.3859 44.5 33.1119 42.6125 33.4934ZM56.2625 1.43965C52.3875 9.62227 46.1 7.24746 41.7875 11.2957C40.2375 12.7723 39.2125 15.4793 39.2125 17.5096C39.2125 19.2445 39.775 20.8441 40.7125 22.2838C46.6375 20.9303 53 16.6236 55.4875 11.1234C55.4 11.8002 54.8875 12.8953 54.5875 13.4859C52.05 17.8787 46.5125 21.5578 42.125 23.9326C43.975 25.7045 46.3375 27.1072 49 27.1072C58.875 27.1072 62.7625 10.5451 56.2625 1.43965Z" fill="#6951FE"/>
</g>
<defs>
<clipPath id="clip0_66_7">
<rect width="56" height="63" fill="white" transform="translate(4)"/>
</clipPath>
</defs>
</svg>
